<svg width="40" height="40" viewBox="0 0 40 40" fill="none" xmlns="http://www.w3.org/2000/svg">
<g clip-path="url(#clip0_458_25449)">
<path d="M33.3332 11.3835C33.3414 10.7645 33.2246 10.1502 32.9898 9.57748C32.755 9.00471 32.4069 8.48523 31.9666 8.05017C31.0698 7.19044 29.8755 6.71045 28.6332 6.71045C27.3909 6.71045 26.1967 7.19044 25.2999 8.05017L14.2999 19.0502H13.9332C12.0456 19.1009 10.2496 19.8745 8.91594 21.2112C7.58229 22.548 6.81287 24.3458 6.76656 26.2335L6.66656 31.6668C6.66083 31.8918 6.7007 32.1155 6.78376 32.3246C6.86683 32.5337 6.99137 32.7238 7.14989 32.8835C7.47435 33.1759 7.89644 33.3364 8.33322 33.3335L13.7666 33.2335C15.6543 33.1872 17.4521 32.4178 18.7888 31.0841C20.1256 29.7505 20.8992 27.9544 20.9499 26.0668V25.6835L31.9666 14.6835C32.4044 14.2535 32.7511 13.7397 32.9859 13.1727C33.2207 12.6057 33.3388 11.9972 33.3332 11.3835ZM13.7499 29.9002L9.99989 30.0002V26.2835C10.0174 25.2342 10.4465 24.2339 11.1948 23.4981C11.943 22.7623 12.9505 22.35 13.9999 22.3502C14.4761 22.3501 14.9476 22.4449 15.3867 22.6292C15.8259 22.8134 16.2239 23.0833 16.5576 23.4232C16.8912 23.763 17.1537 24.1659 17.3298 24.6084C17.5059 25.0509 17.5921 25.524 17.5832 26.0002C17.5587 27.0154 17.149 27.9833 16.4371 28.7075C15.7252 29.4318 14.7645 29.8582 13.7499 29.9002ZM29.6166 12.3168L19.8332 22.1002C19.5772 21.7191 19.2871 21.3621 18.9666 21.0335C18.6423 20.7081 18.2848 20.4176 17.8999 20.1668L27.6832 10.4002C27.9437 10.1516 28.2899 10.0129 28.6499 10.0129C29.0099 10.0129 29.3561 10.1516 29.6166 10.4002C29.7432 10.5299 29.8424 10.6839 29.9083 10.8528C29.9742 11.0218 30.0053 11.2023 29.9999 11.3835C30.0005 11.5566 29.967 11.7282 29.9012 11.8883C29.8354 12.0485 29.7387 12.1941 29.6166 12.3168Z" fill="white"/>
</g>
<defs>
<clipPath id="clip0_458_25449">
<rect width="40" height="40" fill="white"/>
</clipPath>
</defs>
</svg>
