<svg width="17" height="16" viewBox="0 0 17 16" fill="none" xmlns="http://www.w3.org/2000/svg">
<path d="M5.87744 5.5C6.01005 5.5 6.13723 5.55268 6.23099 5.64645C6.32476 5.74021 6.37744 5.86739 6.37744 6V12C6.37744 12.1326 6.32476 12.2598 6.23099 12.3536C6.13723 12.4473 6.01005 12.5 5.87744 12.5C5.74483 12.5 5.61766 12.4473 5.52389 12.3536C5.43012 12.2598 5.37744 12.1326 5.37744 12V6C5.37744 5.86739 5.43012 5.74021 5.52389 5.64645C5.61766 5.55268 5.74483 5.5 5.87744 5.5ZM8.37744 5.5C8.51005 5.5 8.63723 5.55268 8.731 5.64645C8.82476 5.74021 8.87744 5.86739 8.87744 6V12C8.87744 12.1326 8.82476 12.2598 8.731 12.3536C8.63723 12.4473 8.51005 12.5 8.37744 12.5C8.24483 12.5 8.11766 12.4473 8.02389 12.3536C7.93012 12.2598 7.87744 12.1326 7.87744 12V6C7.87744 5.86739 7.93012 5.74021 8.02389 5.64645C8.11766 5.55268 8.24483 5.5 8.37744 5.5ZM11.3774 6C11.3774 5.86739 11.3248 5.74021 11.231 5.64645C11.1372 5.55268 11.01 5.5 10.8774 5.5C10.7448 5.5 10.6177 5.55268 10.5239 5.64645C10.4301 5.74021 10.3774 5.86739 10.3774 6V12C10.3774 12.1326 10.4301 12.2598 10.5239 12.3536C10.6177 12.4473 10.7448 12.5 10.8774 12.5C11.01 12.5 11.1372 12.4473 11.231 12.3536C11.3248 12.2598 11.3774 12.1326 11.3774 12V6Z" fill="black"/>
<path fill-rule="evenodd" clip-rule="evenodd" d="M14.8774 3C14.8774 3.26522 14.7721 3.51957 14.5845 3.70711C14.397 3.89464 14.1427 4 13.8774 4H13.3774V13C13.3774 13.5304 13.1667 14.0391 12.7917 14.4142C12.4166 14.7893 11.9079 15 11.3774 15H5.37744C4.84701 15 4.3383 14.7893 3.96323 14.4142C3.58816 14.0391 3.37744 13.5304 3.37744 13V4H2.87744C2.61222 4 2.35787 3.89464 2.17033 3.70711C1.9828 3.51957 1.87744 3.26522 1.87744 3V2C1.87744 1.73478 1.9828 1.48043 2.17033 1.29289C2.35787 1.10536 2.61222 1 2.87744 1H6.37744C6.37744 0.734784 6.4828 0.48043 6.67034 0.292893C6.85787 0.105357 7.11223 0 7.37744 0L9.37744 0C9.64266 0 9.89701 0.105357 10.0845 0.292893C10.2721 0.48043 10.3774 0.734784 10.3774 1H13.8774C14.1427 1 14.397 1.10536 14.5845 1.29289C14.7721 1.48043 14.8774 1.73478 14.8774 2V3ZM4.49544 4L4.37744 4.059V13C4.37744 13.2652 4.4828 13.5196 4.67034 13.7071C4.85787 13.8946 5.11223 14 5.37744 14H11.3774C11.6427 14 11.897 13.8946 12.0845 13.7071C12.2721 13.5196 12.3774 13.2652 12.3774 13V4.059L12.2594 4H4.49544ZM2.87744 3V2H13.8774V3H2.87744Z" fill="black"/>
</svg>
