<svg width="68" height="68" viewBox="0 0 68 68" fill="none" xmlns="http://www.w3.org/2000/svg">
<circle cx="34" cy="34.0002" r="24" transform="rotate(45 34 34.0002)" fill="#413E54"/>
<path d="M41.0711 39.3033L35.7678 34L41.0711 28.6967C41.3055 28.4623 41.4372 28.1444 41.4372 27.8129C41.4372 27.4813 41.3055 27.1634 41.0711 26.929C40.8366 26.6946 40.5187 26.5629 40.1872 26.5629C39.8557 26.5629 39.5377 26.6946 39.3033 26.929L34 32.2323L28.6967 26.929C28.4623 26.6946 28.1443 26.5629 27.8128 26.5629C27.4813 26.5629 27.1634 26.6946 26.9289 26.929C26.6945 27.1634 26.5628 27.4813 26.5628 27.8129C26.5628 28.1444 26.6945 28.4623 26.9289 28.6967L32.2322 34L26.9289 39.3033C26.6945 39.5378 26.5628 39.8557 26.5628 40.1872C26.5628 40.5188 26.6945 40.8367 26.9289 41.0711C27.1634 41.3055 27.4813 41.4372 27.8128 41.4372C28.1443 41.4372 28.4623 41.3055 28.6967 41.0711L34 35.7678L39.3033 41.0711C39.5377 41.3055 39.8557 41.4372 40.1872 41.4372C40.5187 41.4372 40.8366 41.3055 41.0711 41.0711C41.3055 40.8367 41.4372 40.5188 41.4372 40.1872C41.4372 39.8557 41.3055 39.5378 41.0711 39.3033Z" fill="white"/>
</svg>
